<svg width="400" height="400" viewBox="0 0 400 400" fill="none" xmlns="http://www.w3.org/2000/svg">
<mask id="mask0_13_26" style="mask-type:luminance" maskUnits="userSpaceOnUse" x="0" y="113" width="400" height="174">
<path d="M400 113.441H0V286.252H400V113.441Z" fill="white"/>
</mask>
<g mask="url(#mask0_13_26)">
<path d="M235.662 282.632H264.661V165.885C264.661 163.315 263.813 161.169 262.128 159.484C260.444 157.799 258.297 156.951 255.727 156.951H210.531V181.121H235.675V282.645L235.662 282.632Z" fill="#1E0478"/>
<path d="M240.505 142.441H259.846C261.131 142.441 262.267 141.955 263.227 140.994C264.188 140.033 264.675 138.898 264.675 137.612V118.271C264.675 116.986 264.188 115.85 263.227 114.889C262.267 113.929 261.131 113.442 259.846 113.442H240.505C239.219 113.442 238.084 113.929 237.123 114.889C236.162 115.85 235.676 116.986 235.676 118.271V137.612C235.676 138.898 236.162 140.033 237.123 140.994C238.084 141.955 239.219 142.441 240.505 142.441Z" fill="#1E0478"/>
<path d="M58.772 177.49C66.1844 177.49 71.8989 179.511 75.9296 183.53C79.9602 187.56 81.9688 193.363 81.9688 200.937V282.632H110.968V203.358C110.968 197.88 112.091 193.2 114.35 189.344C116.609 185.476 119.903 182.544 124.258 180.522C128.612 178.514 133.928 177.503 140.205 177.503C147.779 177.503 153.619 179.524 157.724 183.542C161.829 187.573 163.888 193.375 163.888 200.949V282.645H192.888V205.778C192.888 194.498 191.078 184.952 187.447 177.141C183.816 169.33 178.662 163.402 171.974 159.372C165.285 155.341 157.349 153.332 148.166 153.332C137.534 153.332 128.5 155.865 121.101 160.944C115.086 165.062 110.307 170.19 106.726 176.28L106.352 176.217C106.226 175.918 106.115 175.618 105.989 175.319C102.683 167.907 97.8914 162.391 91.6022 158.76C85.3134 155.129 77.5016 153.32 68.1559 153.32C57.836 153.32 49.426 155.454 42.8999 159.721C36.9603 163.602 32.568 168.269 29.698 173.684L28.9992 173.572V156.926H0V282.62H28.9992V203.345C28.9992 197.867 30.1722 193.188 32.5056 189.332C34.839 185.464 38.2206 182.531 42.6503 180.51C47.0801 178.501 52.4457 177.49 58.722 177.49H58.772Z" fill="#1E0478"/>
<path d="M394.56 177.009C390.929 170.407 385.613 165.404 378.612 162.022C371.6 158.641 363.177 156.943 353.357 156.943H303.806V181.114H354.081C359.559 181.114 363.751 182.2 366.646 184.371C369.541 186.542 371.001 189.724 371.001 193.917V206.245H337.647C323.634 206.245 312.104 209.751 303.082 216.764C294.061 223.777 289.544 233.56 289.544 246.138C289.544 253.388 291.116 260.039 294.26 266.078C297.405 272.118 302.234 276.997 308.76 280.703C315.286 284.409 323.222 286.256 332.568 286.256C341.915 286.256 350.25 284.122 357.101 279.855C362.666 276.386 367.145 271.644 370.589 265.667L371.001 265.729V282.625H400V201.166C400 191.658 398.191 183.61 394.56 176.996V177.009ZM356.376 258.829C351.46 261 345.458 262.098 338.37 262.098C334.178 262.098 330.672 261.536 327.852 260.401C325.031 259.278 322.898 257.506 321.45 255.085C320.003 252.664 319.279 249.52 319.279 245.664C319.441 239.7 321.176 235.07 324.47 231.764C327.764 228.456 332.406 226.81 338.37 226.81H371.001V234.296C371.001 240.261 369.79 245.29 367.37 249.408C364.949 253.513 361.281 256.657 356.376 258.829Z" fill="#1E0478"/>
</g>
</svg>
